<svg xmlns="http://www.w3.org/2000/svg" viewBox="0 0 760 413" width="760" height="413" font-family="'Noto Sans JP','Hiragino Kaku Gothic ProN','Yu Gothic',sans-serif" role="img" aria-label="「有効」と「無効」――入会同意の2つのルート"><rect x="1.0" y="1.0" width="758.0" height="411.1" rx="16" fill="#ffffff" stroke="#e7e2d6" stroke-width="1"/><text x="32.0" y="38.0" font-size="12" fill="#7a5d14" font-weight="700" text-anchor="start" font-family="'Noto Sans JP','Hiragino Kaku Gothic ProN','Yu Gothic',sans-serif">入会手続</text><line x1="32.0" y1="49.0" x2="88.0" y2="49.0" stroke="#bd9628" stroke-width="2"/><text x="32.0" y="72.0" font-size="18.5" fill="#1e3a5f" font-weight="700" text-anchor="start" font-family="'Noto Serif JP','Hiragino Mincho ProN','Yu Mincho',serif">「有効」と「無効」――入会同意の2つのルート</text><line x1="32.0" y1="74.0" x2="728.0" y2="74.0" stroke="#bd9628" stroke-width="2"/><rect x="32.0" y="104.0" width="335.0" height="207.8" rx="13" fill="#fff" stroke="#e7e2d6" stroke-width="1"/><rect x="32.0" y="104.0" width="335.0" height="4.0" rx="2" fill="#1f7a45"/><text x="50.0" y="136.0" font-size="15" fill="#1e3a5f" font-weight="700" text-anchor="start" font-family="'Noto Serif JP','Hiragino Mincho ProN','Yu Mincho',serif">オプトイン（入会申込書）</text><circle cx="54" cy="158" r="3" fill="#1f7a45"/><text x="68.0" y="162.0" font-size="12.3" fill="#1c232e" font-weight="400" text-anchor="start" font-family="'Noto Sans JP','Hiragino Kaku Gothic ProN','Yu Gothic',sans-serif">本人が申込み、PTAが承諾</text><circle cx="54" cy="184.45" r="3" fill="#1f7a45"/><text x="68.0" y="188.4" font-size="12.3" fill="#1c232e" font-weight="400" text-anchor="start" font-family="'Noto Sans JP','Hiragino Kaku Gothic ProN','Yu Gothic',sans-serif">契約が成立する（民法522条）</text><circle cx="54" cy="210.89999999999998" r="3" fill="#1f7a45"/><text x="68.0" y="214.9" font-size="12.3" fill="#1c232e" font-weight="400" text-anchor="start" font-family="'Noto Sans JP','Hiragino Kaku Gothic ProN','Yu Gothic',sans-serif">会員の範囲が明確になる</text><circle cx="54" cy="237.34999999999997" r="3" fill="#1f7a45"/><text x="68.0" y="241.3" font-size="12.3" fill="#1c232e" font-weight="400" text-anchor="start" font-family="'Noto Sans JP','Hiragino Kaku Gothic ProN','Yu Gothic',sans-serif">個人情報を本人から直接取得できる</text><rect x="46.0" y="277.8" width="307.0" height="24.0" rx="12" fill="#e9f1ea"/><circle cx="60" cy="289.8" r="14" fill="#1f7a45"/><path d="M54 289.8 l4 4 8-9" fill="none" stroke="#fff" stroke-width="2.4" stroke-linecap="round" stroke-linejoin="round"/><text x="78.0" y="293.8" font-size="12" fill="#1f7a45" font-weight="700" text-anchor="start" font-family="'Noto Sans JP','Hiragino Kaku Gothic ProN','Yu Gothic',sans-serif">法的に有効</text><rect x="393.0" y="104.0" width="335.0" height="207.8" rx="13" fill="#fff" stroke="#e7e2d6" stroke-width="1"/><rect x="393.0" y="104.0" width="335.0" height="4.0" rx="2" fill="#a8261b"/><text x="411.0" y="136.0" font-size="15" fill="#1e3a5f" font-weight="700" text-anchor="start" font-family="'Noto Serif JP','Hiragino Mincho ProN','Yu Mincho',serif">オプトアウト（みなし加入）</text><circle cx="415.0" cy="158" r="3" fill="#a8261b"/><text x="429.0" y="162.0" font-size="12.3" fill="#1c232e" font-weight="400" text-anchor="start" font-family="'Noto Sans JP','Hiragino Kaku Gothic ProN','Yu Gothic',sans-serif">入学＝自動的に会員扱い</text><circle cx="415.0" cy="184.45" r="3" fill="#a8261b"/><text x="429.0" y="188.4" font-size="12.3" fill="#1c232e" font-weight="400" text-anchor="start" font-family="'Noto Sans JP','Hiragino Kaku Gothic ProN','Yu Gothic',sans-serif">沈黙を承諾とみなす条項</text><circle cx="415.0" cy="210.89999999999998" r="3" fill="#a8261b"/><text x="429.0" y="214.9" font-size="12.3" fill="#1c232e" font-weight="400" text-anchor="start" font-family="'Noto Sans JP','Hiragino Kaku Gothic ProN','Yu Gothic',sans-serif">契約は成立していない</text><circle cx="415.0" cy="237.34999999999997" r="3" fill="#a8261b"/><text x="429.0" y="241.3" font-size="12.3" fill="#1c232e" font-weight="400" text-anchor="start" font-family="'Noto Sans JP','Hiragino Kaku Gothic ProN','Yu Gothic',sans-serif">消費者契約法上も無効の可能性</text><rect x="407.0" y="277.8" width="307.0" height="24.0" rx="12" fill="#f8ebe8"/><circle cx="421.0" cy="289.8" r="14" fill="#a8261b"/><path d="M416.0 284.8 l10 10 M426.0 284.8 l-10 10" stroke="#fff" stroke-width="2.4" stroke-linecap="round"/><text x="439.0" y="293.8" font-size="12" fill="#a8261b" font-weight="700" text-anchor="start" font-family="'Noto Sans JP','Hiragino Kaku Gothic ProN','Yu Gothic',sans-serif">法的に無効</text><g transform="translate(380.0,207.9)"><text x="0.0" y="-12.0" font-size="10.5" fill="#7a5d14" font-weight="700" text-anchor="middle" font-family="'Noto Sans JP','Hiragino Kaku Gothic ProN','Yu Gothic',sans-serif">適正化</text><line x1="-21.0" y1="0.0" x2="14.0" y2="0.0" stroke="#bd9628" stroke-width="3"/><path d="M12 -6 L21 0 L12 6 Z" fill="#bd9628"/></g><text x="32.0" y="333.8" font-size="12.5" fill="#5c6675" font-weight="400" text-anchor="start" font-family="'Noto Sans JP','Hiragino Kaku Gothic ProN','Yu Gothic',sans-serif">「沈黙は承諾ではない」。入学をもって会員とみなす規定は、消費者の不作為を承諾とみなすもので無効となりうる</text><text x="32.0" y="353.2" font-size="12.5" fill="#5c6675" font-weight="400" text-anchor="start" font-family="'Noto Sans JP','Hiragino Kaku Gothic ProN','Yu Gothic',sans-serif">。</text><text x="32.0" y="382.6" font-size="11" fill="#5c6675" font-weight="400" text-anchor="start" font-family="'Noto Sans JP','Hiragino Kaku Gothic ProN','Yu Gothic',sans-serif">出典： 民法522条／消費者契約法10条・4条</text></svg>