<svg xmlns="http://www.w3.org/2000/svg" viewBox="0 0 760 410" width="760" height="410" font-family="'Noto Sans JP','Hiragino Kaku Gothic ProN','Yu Gothic',sans-serif" role="img" aria-label="学校がPTAに名簿を渡す「根拠」は何か"><rect x="1.0" y="1.0" width="758.0" height="408.5" rx="16" fill="#ffffff" stroke="#e7e2d6" stroke-width="1"/><text x="32.0" y="38.0" font-size="12" fill="#7a5d14" font-weight="700" text-anchor="start" font-family="'Noto Sans JP','Hiragino Kaku Gothic ProN','Yu Gothic',sans-serif">個人情報</text><line x1="32.0" y1="49.0" x2="88.0" y2="49.0" stroke="#bd9628" stroke-width="2"/><text x="32.0" y="72.0" font-size="18.5" fill="#1e3a5f" font-weight="700" text-anchor="start" font-family="'Noto Serif JP','Hiragino Mincho ProN','Yu Mincho',serif">学校がPTAに名簿を渡す「根拠」は何か</text><line x1="32.0" y1="74.0" x2="728.0" y2="74.0" stroke="#bd9628" stroke-width="2"/><rect x="215.6" y="108.0" width="328.8" height="61.0" rx="12" fill="#1e3a5f" stroke="#1e3a5f" stroke-width="1"/><text x="380.0" y="136.0" font-size="14.5" fill="#fff" font-weight="700" text-anchor="middle" font-family="'Noto Serif JP','Hiragino Mincho ProN','Yu Mincho',serif">学校が保有する名簿をPTAへ提供する根拠は？</text><path d="M380.0 169 C 380.0 195, 141.33333333333331 197, 141.33333333333331 223" fill="none" stroke="#bd9628" stroke-width="2.5"/><path d="M136.33333333333331 216 L141.33333333333331 223 L146.33333333333331 216 Z" fill="#bd9628"/><path d="M380.0 169 C 380.0 195, 379.99999999999994 197, 379.99999999999994 223" fill="none" stroke="#bd9628" stroke-width="2.5"/><path d="M374.99999999999994 216 L379.99999999999994 223 L384.99999999999994 216 Z" fill="#bd9628"/><path d="M380.0 169 C 380.0 195, 618.6666666666666 197, 618.6666666666666 223" fill="none" stroke="#bd9628" stroke-width="2.5"/><path d="M613.6666666666666 216 L618.6666666666666 223 L623.6666666666666 216 Z" fill="#bd9628"/><rect x="32.0" y="223.0" width="218.7" height="129.0" rx="12" fill="#fff" stroke="#1f7a45" stroke-width="1"/><circle cx="56.0" cy="249" r="14" fill="#1f7a45"/><path d="M50.0 249 l4 4 8-9" fill="none" stroke="#fff" stroke-width="2.4" stroke-linecap="round" stroke-linejoin="round"/><text x="76.0" y="245.0" font-size="12.8" fill="#1e3a5f" font-weight="700" text-anchor="start" font-family="'Noto Serif JP','Hiragino Mincho ProN','Yu Mincho',serif">本人同意（入会申込書）</text><text x="48.0" y="270.0" font-size="11" fill="#5c6675" font-weight="400" text-anchor="start" font-family="'Noto Sans JP','Hiragino Kaku Gothic ProN','Yu Gothic',sans-serif">目的を明示した個別同意</text><g transform="translate(141.33333333333331,334)"><rect x="-24.0" y="-13.0" width="48.0" height="26" rx="13" fill="#e9f1ea"/><text x="0.0" y="4.5" font-size="11" fill="#1f7a45" font-weight="700" text-anchor="middle" font-family="'Noto Sans JP','Hiragino Kaku Gothic ProN','Yu Gothic',sans-serif">適法</text></g><rect x="270.7" y="223.0" width="218.7" height="129.0" rx="12" fill="#fff" stroke="#a8261b" stroke-width="1"/><circle cx="294.66666666666663" cy="249" r="14" fill="#a8261b"/><path d="M289.66666666666663 244 l10 10 M299.66666666666663 244 l-10 10" stroke="#fff" stroke-width="2.4" stroke-linecap="round"/><text x="314.7" y="245.0" font-size="12.8" fill="#1e3a5f" font-weight="700" text-anchor="start" font-family="'Noto Serif JP','Hiragino Mincho ProN','Yu Mincho',serif">オプトアウト・包括同意</text><text x="286.7" y="270.0" font-size="11" fill="#5c6675" font-weight="400" text-anchor="start" font-family="'Noto Sans JP','Hiragino Kaku Gothic ProN','Yu Gothic',sans-serif">行政機関等にオプトアウト規定は適用</text><text x="286.7" y="285.9" font-size="11" fill="#5c6675" font-weight="400" text-anchor="start" font-family="'Noto Sans JP','Hiragino Kaku Gothic ProN','Yu Gothic',sans-serif">不可</text><g transform="translate(379.99999999999994,334)"><rect x="-58.3" y="-13.0" width="116.6" height="26" rx="13" fill="#f8ebe8"/><text x="0.0" y="4.5" font-size="11" fill="#a8261b" font-weight="700" text-anchor="middle" font-family="'Noto Sans JP','Hiragino Kaku Gothic ProN','Yu Gothic',sans-serif">法27条2項 不適用</text></g><rect x="509.3" y="223.0" width="218.7" height="129.0" rx="12" fill="#fff" stroke="#a8261b" stroke-width="1"/><circle cx="533.3333333333333" cy="249" r="14" fill="#a8261b"/><path d="M528.3333333333333 244 l10 10 M538.3333333333333 244 l-10 10" stroke="#fff" stroke-width="2.4" stroke-linecap="round"/><text x="553.3" y="245.0" font-size="12.8" fill="#1e3a5f" font-weight="700" text-anchor="start" font-family="'Noto Serif JP','Hiragino Mincho ProN','Yu Mincho',serif">「公益だから」</text><text x="525.3" y="270.0" font-size="11" fill="#5c6675" font-weight="400" text-anchor="start" font-family="'Noto Sans JP','Hiragino Kaku Gothic ProN','Yu Gothic',sans-serif">目的外利用を正当化する根拠にならな</text><text x="525.3" y="285.9" font-size="11" fill="#5c6675" font-weight="400" text-anchor="start" font-family="'Noto Sans JP','Hiragino Kaku Gothic ProN','Yu Gothic',sans-serif">い</text><g transform="translate(618.6666666666666,334)"><rect x="-35.0" y="-13.0" width="70.0" height="26" rx="13" fill="#f8ebe8"/><text x="0.0" y="4.5" font-size="11" fill="#a8261b" font-weight="700" text-anchor="middle" font-family="'Noto Sans JP','Hiragino Kaku Gothic ProN','Yu Gothic',sans-serif">根拠なし</text></g><text x="32.0" y="380.0" font-size="11" fill="#5c6675" font-weight="400" text-anchor="start" font-family="'Noto Sans JP','Hiragino Kaku Gothic ProN','Yu Gothic',sans-serif">出典： 個人情報保護法27条2項・69条</text></svg>