<svg xmlns="http://www.w3.org/2000/svg" viewBox="0 0 760 366" width="760" height="366" font-family="'Noto Sans JP','Hiragino Kaku Gothic ProN','Yu Gothic',sans-serif" role="img" aria-label="絵でわかる――代行徴収の資金の流れと法的問題"><rect x="1.0" y="1.0" width="758.0" height="363.9" rx="16" fill="#ffffff" stroke="#e7e2d6" stroke-width="1"/><text x="32.0" y="38.0" font-size="12" fill="#7a5d14" font-weight="700" text-anchor="start" font-family="'Noto Sans JP','Hiragino Kaku Gothic ProN','Yu Gothic',sans-serif">会費徴収</text><line x1="32.0" y1="49.0" x2="88.0" y2="49.0" stroke="#bd9628" stroke-width="2"/><text x="32.0" y="72.0" font-size="18.5" fill="#1e3a5f" font-weight="700" text-anchor="start" font-family="'Noto Serif JP','Hiragino Mincho ProN','Yu Mincho',serif">絵でわかる――代行徴収の資金の流れと法的問題</text><line x1="32.0" y1="74.0" x2="728.0" y2="74.0" stroke="#bd9628" stroke-width="2"/><rect x="32.0" y="124.0" width="150.0" height="58.0" rx="12" fill="#fff" stroke="#1e3a5f" stroke-width="1"/><text x="107.0" y="158.0" font-size="12.5" fill="#1e3a5f" font-weight="700" text-anchor="middle" font-family="'Noto Serif JP','Hiragino Mincho ProN','Yu Mincho',serif">全世帯の保護者</text><rect x="305.0" y="124.0" width="150.0" height="58.0" rx="12" fill="#eaf0f7" stroke="#1e3a5f" stroke-width="1"/><text x="380.0" y="150.0" font-size="12.5" fill="#1e3a5f" font-weight="700" text-anchor="middle" font-family="'Noto Serif JP','Hiragino Mincho ProN','Yu Mincho',serif">学校（教職員）が代行</text><text x="380.0" y="165.6" font-size="12.5" fill="#1e3a5f" font-weight="700" text-anchor="middle" font-family="'Noto Serif JP','Hiragino Mincho ProN','Yu Mincho',serif">徴収</text><rect x="578.0" y="124.0" width="150.0" height="58.0" rx="12" fill="#fff" stroke="#bd9628" stroke-width="1"/><text x="653.0" y="158.0" font-size="12.5" fill="#1e3a5f" font-weight="700" text-anchor="middle" font-family="'Noto Serif JP','Hiragino Mincho ProN','Yu Mincho',serif">PTA会計</text><g transform="translate(182,153.0)"><line x1="4.0" y1="0.0" x2="116.0" y2="0.0" stroke="#1f7a45" stroke-width="3"/><path d="M114.0 -6 L123.0 0 L114.0 6 Z" fill="#1f7a45"/></g><text x="243.5" y="141.0" font-size="10.5" fill="#1f7a45" font-weight="700" text-anchor="middle" font-family="'Noto Sans JP','Hiragino Kaku Gothic ProN','Yu Gothic',sans-serif">会費（私費）</text><g transform="translate(455.0,153.0)"><line x1="4.0" y1="0.0" x2="116.0" y2="0.0" stroke="#bd9628" stroke-width="3"/><path d="M114.0 -6 L123.0 0 L114.0 6 Z" fill="#bd9628"/></g><text x="516.5" y="141.0" font-size="10.5" fill="#7a5d14" font-weight="700" text-anchor="middle" font-family="'Noto Sans JP','Hiragino Kaku Gothic ProN','Yu Gothic',sans-serif">繰入</text><rect x="32.0" y="212.0" width="224.0" height="72.0" rx="10" fill="#f8ebe8" stroke="#e7c9c4" stroke-width="1"/><text x="46.0" y="234.0" font-size="11.5" fill="#a8261b" font-weight="700" text-anchor="start" font-family="'Noto Sans JP','Hiragino Kaku Gothic ProN','Yu Gothic',sans-serif">学校徴収金と同口座・同案内</text><g transform="translate(144.0,268)"><rect x="-73.0" y="-13.0" width="146.0" height="26" rx="13" fill="#fff"/><text x="0.0" y="4.5" font-size="10" fill="#a8261b" font-weight="700" text-anchor="middle" font-family="'Noto Sans JP','Hiragino Kaku Gothic ProN','Yu Gothic',sans-serif">個人情報保護法／公私混同</text></g><rect x="268.0" y="212.0" width="224.0" height="72.0" rx="10" fill="#f8ebe8" stroke="#e7c9c4" stroke-width="1"/><text x="282.0" y="234.0" font-size="11.5" fill="#a8261b" font-weight="700" text-anchor="start" font-family="'Noto Sans JP','Hiragino Kaku Gothic ProN','Yu Gothic',sans-serif">委任契約なき代理徴収（無権代理）</text><g transform="translate(380.0,268)"><rect x="-36.4" y="-13.0" width="72.8" height="26" rx="13" fill="#fff"/><text x="0.0" y="4.5" font-size="10" fill="#a8261b" font-weight="700" text-anchor="middle" font-family="'Noto Sans JP','Hiragino Kaku Gothic ProN','Yu Gothic',sans-serif">民法113条</text></g><rect x="504.0" y="212.0" width="224.0" height="72.0" rx="10" fill="#f8ebe8" stroke="#e7c9c4" stroke-width="1"/><text x="518.0" y="234.0" font-size="11.5" fill="#a8261b" font-weight="700" text-anchor="start" font-family="'Noto Sans JP','Hiragino Kaku Gothic ProN','Yu Gothic',sans-serif">勤務時間中の私団体事務</text><g transform="translate(616.0,268)"><rect x="-53.6" y="-13.0" width="107.2" height="26" rx="13" fill="#fff"/><text x="0.0" y="4.5" font-size="10" fill="#a8261b" font-weight="700" text-anchor="middle" font-family="'Noto Sans JP','Hiragino Kaku Gothic ProN','Yu Gothic',sans-serif">地方公務員法35条</text></g><line x1="380.0" y1="182.0" x2="380.0" y2="212.0" stroke="#e7c9c4" stroke-width="2" stroke-dasharray="4 4"/><text x="32.0" y="306.0" font-size="12.5" fill="#5c6675" font-weight="400" text-anchor="start" font-family="'Noto Sans JP','Hiragino Kaku Gothic ProN','Yu Gothic',sans-serif">学校が私的団体PTAの会費を代行徴収する構造は、委任契約・会計・服務の三方向で法的問題を抱える。</text><text x="32.0" y="335.4" font-size="11" fill="#5c6675" font-weight="400" text-anchor="start" font-family="'Noto Sans JP','Hiragino Kaku Gothic ProN','Yu Gothic',sans-serif">出典： 民法113条／個人情報保護法／地方公務員法35条</text></svg>