<svg xmlns="http://www.w3.org/2000/svg" viewBox="0 0 760 370" width="760" height="370" font-family="'Noto Sans JP','Hiragino Kaku Gothic ProN','Yu Gothic',sans-serif" role="img" aria-label="「渉外業務」――何がOKで何がNGか"><rect x="1.0" y="1.0" width="758.0" height="368.3" rx="16" fill="#ffffff" stroke="#e7e2d6" stroke-width="1"/><text x="32.0" y="38.0" font-size="12" fill="#7a5d14" font-weight="700" text-anchor="start" font-family="'Noto Sans JP','Hiragino Kaku Gothic ProN','Yu Gothic',sans-serif">教職員関与</text><line x1="32.0" y1="49.0" x2="100.0" y2="49.0" stroke="#bd9628" stroke-width="2"/><text x="32.0" y="72.0" font-size="18.5" fill="#1e3a5f" font-weight="700" text-anchor="start" font-family="'Noto Serif JP','Hiragino Mincho ProN','Yu Mincho',serif">「渉外業務」――何がOKで何がNGか</text><line x1="32.0" y1="74.0" x2="728.0" y2="74.0" stroke="#bd9628" stroke-width="2"/><rect x="32.0" y="104.0" width="335.0" height="207.8" rx="13" fill="#fff" stroke="#e7e2d6" stroke-width="1"/><rect x="32.0" y="104.0" width="335.0" height="4.0" rx="2" fill="#1f7a45"/><text x="50.0" y="136.0" font-size="15" fill="#1e3a5f" font-weight="700" text-anchor="start" font-family="'Noto Serif JP','Hiragino Mincho ProN','Yu Mincho',serif">協力できる範囲（OK）</text><circle cx="54" cy="158" r="3" fill="#1f7a45"/><text x="68.0" y="162.0" font-size="12.3" fill="#1c232e" font-weight="400" text-anchor="start" font-family="'Noto Sans JP','Hiragino Kaku Gothic ProN','Yu Gothic',sans-serif">会場・日程の連絡調整</text><circle cx="54" cy="184.45" r="3" fill="#1f7a45"/><text x="68.0" y="188.4" font-size="12.3" fill="#1c232e" font-weight="400" text-anchor="start" font-family="'Noto Sans JP','Hiragino Kaku Gothic ProN','Yu Gothic',sans-serif">教育活動と一体の行事への参加</text><circle cx="54" cy="210.89999999999998" r="3" fill="#1f7a45"/><text x="68.0" y="214.9" font-size="12.3" fill="#1c232e" font-weight="400" text-anchor="start" font-family="'Noto Sans JP','Hiragino Kaku Gothic ProN','Yu Gothic',sans-serif">PTAからの相談に応じる助言</text><rect x="46.0" y="277.8" width="307.0" height="24.0" rx="12" fill="#e9f1ea"/><circle cx="60" cy="289.8" r="14" fill="#1f7a45"/><path d="M54 289.8 l4 4 8-9" fill="none" stroke="#fff" stroke-width="2.4" stroke-linecap="round" stroke-linejoin="round"/><text x="78.0" y="293.8" font-size="12" fill="#1f7a45" font-weight="700" text-anchor="start" font-family="'Noto Sans JP','Hiragino Kaku Gothic ProN','Yu Gothic',sans-serif">可</text><rect x="393.0" y="104.0" width="335.0" height="207.8" rx="13" fill="#fff" stroke="#e7e2d6" stroke-width="1"/><rect x="393.0" y="104.0" width="335.0" height="4.0" rx="2" fill="#a8261b"/><text x="411.0" y="136.0" font-size="15" fill="#1e3a5f" font-weight="700" text-anchor="start" font-family="'Noto Serif JP','Hiragino Mincho ProN','Yu Mincho',serif">担ってはならない（NG）</text><circle cx="415.0" cy="158" r="3" fill="#a8261b"/><text x="429.0" y="162.0" font-size="12.3" fill="#1c232e" font-weight="400" text-anchor="start" font-family="'Noto Sans JP','Hiragino Kaku Gothic ProN','Yu Gothic',sans-serif">会費の集金・督促</text><circle cx="415.0" cy="184.45" r="3" fill="#a8261b"/><text x="429.0" y="188.4" font-size="12.3" fill="#1c232e" font-weight="400" text-anchor="start" font-family="'Noto Sans JP','Hiragino Kaku Gothic ProN','Yu Gothic',sans-serif">会計帳簿の作成・管理</text><circle cx="415.0" cy="210.89999999999998" r="3" fill="#a8261b"/><text x="429.0" y="214.9" font-size="12.3" fill="#1c232e" font-weight="400" text-anchor="start" font-family="'Noto Sans JP','Hiragino Kaku Gothic ProN','Yu Gothic',sans-serif">会員名簿の作成・管理</text><circle cx="415.0" cy="237.34999999999997" r="3" fill="#a8261b"/><text x="429.0" y="241.3" font-size="12.3" fill="#1c232e" font-weight="400" text-anchor="start" font-family="'Noto Sans JP','Hiragino Kaku Gothic ProN','Yu Gothic',sans-serif">役員選出の事務</text><rect x="407.0" y="277.8" width="307.0" height="24.0" rx="12" fill="#f8ebe8"/><circle cx="421.0" cy="289.8" r="14" fill="#a8261b"/><path d="M416.0 284.8 l10 10 M426.0 284.8 l-10 10" stroke="#fff" stroke-width="2.4" stroke-linecap="round"/><text x="439.0" y="293.8" font-size="12" fill="#a8261b" font-weight="700" text-anchor="start" font-family="'Noto Sans JP','Hiragino Kaku Gothic ProN','Yu Gothic',sans-serif">不可</text><text x="32.0" y="339.8" font-size="11" fill="#5c6675" font-weight="400" text-anchor="start" font-family="'Noto Sans JP','Hiragino Kaku Gothic ProN','Yu Gothic',sans-serif">出典： 地方公務員法35条／文科省 通知</text></svg>