<svg xmlns="http://www.w3.org/2000/svg" viewBox="0 0 760 258" width="760" height="258" font-family="'Noto Sans JP','Hiragino Kaku Gothic ProN','Yu Gothic',sans-serif" role="img" aria-label="適正な情報取得の手順"><rect x="1.0" y="1.0" width="758.0" height="255.5" rx="16" fill="#ffffff" stroke="#e7e2d6" stroke-width="1"/><text x="32.0" y="38.0" font-size="12" fill="#7a5d14" font-weight="700" text-anchor="start" font-family="'Noto Sans JP','Hiragino Kaku Gothic ProN','Yu Gothic',sans-serif">個人情報</text><line x1="32.0" y1="49.0" x2="88.0" y2="49.0" stroke="#bd9628" stroke-width="2"/><text x="32.0" y="72.0" font-size="18.5" fill="#1e3a5f" font-weight="700" text-anchor="start" font-family="'Noto Serif JP','Hiragino Mincho ProN','Yu Mincho',serif">適正な情報取得の手順</text><line x1="32.0" y1="74.0" x2="728.0" y2="74.0" stroke="#bd9628" stroke-width="2"/><rect x="32.0" y="108.0" width="162.0" height="91.0" rx="12" fill="#fff" stroke="#e7e2d6" stroke-width="1"/><rect x="32.0" y="108.0" width="162.0" height="4.0" rx="2" fill="#bd9628"/><circle cx="56.0" cy="138" r="14" fill="#1e3a5f"/><text x="56.0" y="143.0" font-size="13" fill="#fff" font-weight="700" text-anchor="middle" font-family="'Noto Serif JP','Hiragino Mincho ProN','Yu Mincho',serif">1</text><text x="78.0" y="135.0" font-size="12.5" fill="#1e3a5f" font-weight="700" text-anchor="start" font-family="'Noto Serif JP','Hiragino Mincho ProN','Yu Mincho',serif">直接収集</text><text x="48.0" y="162.0" font-size="11" fill="#5c6675" font-weight="400" text-anchor="start" font-family="'Noto Sans JP','Hiragino Kaku Gothic ProN','Yu Gothic',sans-serif">入会申込書で本人から取得</text><g transform="translate(194.0,153.5)"><line x1="2.0" y1="0.0" x2="7.0" y2="0.0" stroke="#bd9628" stroke-width="2.5"/><path d="M5 -6 L14 0 L5 6 Z" fill="#bd9628"/></g><rect x="210.0" y="108.0" width="162.0" height="91.0" rx="12" fill="#fff" stroke="#e7e2d6" stroke-width="1"/><rect x="210.0" y="108.0" width="162.0" height="4.0" rx="2" fill="#bd9628"/><circle cx="234.0" cy="138" r="14" fill="#1e3a5f"/><text x="234.0" y="143.0" font-size="13" fill="#fff" font-weight="700" text-anchor="middle" font-family="'Noto Serif JP','Hiragino Mincho ProN','Yu Mincho',serif">2</text><text x="256.0" y="135.0" font-size="12.5" fill="#1e3a5f" font-weight="700" text-anchor="start" font-family="'Noto Serif JP','Hiragino Mincho ProN','Yu Mincho',serif">目的の明示</text><text x="226.0" y="162.0" font-size="11" fill="#5c6675" font-weight="400" text-anchor="start" font-family="'Noto Sans JP','Hiragino Kaku Gothic ProN','Yu Gothic',sans-serif">利用目的を書面で示す</text><g transform="translate(372.0,153.5)"><line x1="2.0" y1="0.0" x2="7.0" y2="0.0" stroke="#bd9628" stroke-width="2.5"/><path d="M5 -6 L14 0 L5 6 Z" fill="#bd9628"/></g><rect x="388.0" y="108.0" width="162.0" height="91.0" rx="12" fill="#fff" stroke="#e7e2d6" stroke-width="1"/><rect x="388.0" y="108.0" width="162.0" height="4.0" rx="2" fill="#bd9628"/><circle cx="412.0" cy="138" r="14" fill="#1e3a5f"/><text x="412.0" y="143.0" font-size="13" fill="#fff" font-weight="700" text-anchor="middle" font-family="'Noto Serif JP','Hiragino Mincho ProN','Yu Mincho',serif">3</text><text x="434.0" y="135.0" font-size="12.5" fill="#1e3a5f" font-weight="700" text-anchor="start" font-family="'Noto Serif JP','Hiragino Mincho ProN','Yu Mincho',serif">適正管理</text><text x="404.0" y="162.0" font-size="11" fill="#5c6675" font-weight="400" text-anchor="start" font-family="'Noto Sans JP','Hiragino Kaku Gothic ProN','Yu Gothic',sans-serif">PTA内で安全に管理・更新</text><g transform="translate(550.0,153.5)"><line x1="2.0" y1="0.0" x2="7.0" y2="0.0" stroke="#bd9628" stroke-width="2.5"/><path d="M5 -6 L14 0 L5 6 Z" fill="#bd9628"/></g><rect x="566.0" y="108.0" width="162.0" height="91.0" rx="12" fill="#fff" stroke="#e7e2d6" stroke-width="1"/><rect x="566.0" y="108.0" width="162.0" height="4.0" rx="2" fill="#bd9628"/><circle cx="590.0" cy="138" r="14" fill="#1e3a5f"/><text x="590.0" y="143.0" font-size="13" fill="#fff" font-weight="700" text-anchor="middle" font-family="'Noto Serif JP','Hiragino Mincho ProN','Yu Mincho',serif">4</text><text x="612.0" y="135.0" font-size="12.5" fill="#1e3a5f" font-weight="700" text-anchor="start" font-family="'Noto Serif JP','Hiragino Mincho ProN','Yu Mincho',serif">学校情報は不使用</text><text x="582.0" y="162.0" font-size="11" fill="#5c6675" font-weight="400" text-anchor="start" font-family="'Noto Sans JP','Hiragino Kaku Gothic ProN','Yu Gothic',sans-serif">学校保有情報に依存しない</text><text x="32.0" y="227.0" font-size="11" fill="#5c6675" font-weight="400" text-anchor="start" font-family="'Noto Sans JP','Hiragino Kaku Gothic ProN','Yu Gothic',sans-serif">出典： 個人情報保護法</text></svg>