<svg xmlns="http://www.w3.org/2000/svg" viewBox="0 0 820 272" width="820" height="272" font-family="'Noto Sans JP','Hiragino Kaku Gothic ProN','Yu Gothic',sans-serif" role="img" aria-label="役員就任後、最初の1ヶ月でやること"><rect x="1.0" y="1.0" width="818.0" height="270.5" rx="16" fill="#ffffff" stroke="#e7e2d6" stroke-width="1"/><text x="32.0" y="38.0" font-size="12" fill="#7a5d14" font-weight="700" text-anchor="start" font-family="'Noto Sans JP','Hiragino Kaku Gothic ProN','Yu Gothic',sans-serif">PTA役員</text><line x1="32.0" y1="49.0" x2="84.2" y2="49.0" stroke="#bd9628" stroke-width="2"/><text x="32.0" y="72.0" font-size="18.5" fill="#1e3a5f" font-weight="700" text-anchor="start" font-family="'Noto Serif JP','Hiragino Mincho ProN','Yu Mincho',serif">役員就任後、最初の1ヶ月でやること</text><line x1="32.0" y1="74.0" x2="788.0" y2="74.0" stroke="#bd9628" stroke-width="2"/><rect x="32.0" y="108.0" width="177.0" height="106.0" rx="12" fill="#fff" stroke="#e7e2d6" stroke-width="1"/><rect x="32.0" y="108.0" width="177.0" height="4.0" rx="2" fill="#bd9628"/><circle cx="56.0" cy="138" r="14" fill="#1e3a5f"/><text x="56.0" y="143.0" font-size="13" fill="#fff" font-weight="700" text-anchor="middle" font-family="'Noto Serif JP','Hiragino Mincho ProN','Yu Mincho',serif">1</text><text x="78.0" y="135.0" font-size="12.5" fill="#1e3a5f" font-weight="700" text-anchor="start" font-family="'Noto Serif JP','Hiragino Mincho ProN','Yu Mincho',serif">申込書の整備</text><text x="48.0" y="162.0" font-size="11" fill="#5c6675" font-weight="400" text-anchor="start" font-family="'Noto Sans JP','Hiragino Kaku Gothic ProN','Yu Gothic',sans-serif">入会申込書（オプトイン）を</text><text x="48.0" y="177.9" font-size="11" fill="#5c6675" font-weight="400" text-anchor="start" font-family="'Noto Sans JP','Hiragino Kaku Gothic ProN','Yu Gothic',sans-serif">用意</text><g transform="translate(209.0,161.0)"><line x1="2.0" y1="0.0" x2="7.0" y2="0.0" stroke="#bd9628" stroke-width="2.5"/><path d="M5 -6 L14 0 L5 6 Z" fill="#bd9628"/></g><rect x="225.0" y="108.0" width="177.0" height="106.0" rx="12" fill="#fff" stroke="#e7e2d6" stroke-width="1"/><rect x="225.0" y="108.0" width="177.0" height="4.0" rx="2" fill="#bd9628"/><circle cx="249.0" cy="138" r="14" fill="#1e3a5f"/><text x="249.0" y="143.0" font-size="13" fill="#fff" font-weight="700" text-anchor="middle" font-family="'Noto Serif JP','Hiragino Mincho ProN','Yu Mincho',serif">2</text><text x="271.0" y="135.0" font-size="12.5" fill="#1e3a5f" font-weight="700" text-anchor="start" font-family="'Noto Serif JP','Hiragino Mincho ProN','Yu Mincho',serif">独自徴収の準備</text><text x="241.0" y="162.0" font-size="11" fill="#5c6675" font-weight="400" text-anchor="start" font-family="'Noto Sans JP','Hiragino Kaku Gothic ProN','Yu Gothic',sans-serif">PTA口座・振替/アプリを整え</text><text x="241.0" y="177.9" font-size="11" fill="#5c6675" font-weight="400" text-anchor="start" font-family="'Noto Sans JP','Hiragino Kaku Gothic ProN','Yu Gothic',sans-serif">る</text><g transform="translate(402.0,161.0)"><line x1="2.0" y1="0.0" x2="7.0" y2="0.0" stroke="#bd9628" stroke-width="2.5"/><path d="M5 -6 L14 0 L5 6 Z" fill="#bd9628"/></g><rect x="418.0" y="108.0" width="177.0" height="106.0" rx="12" fill="#fff" stroke="#e7e2d6" stroke-width="1"/><rect x="418.0" y="108.0" width="177.0" height="4.0" rx="2" fill="#bd9628"/><circle cx="442.0" cy="138" r="14" fill="#1e3a5f"/><text x="442.0" y="143.0" font-size="13" fill="#fff" font-weight="700" text-anchor="middle" font-family="'Noto Serif JP','Hiragino Mincho ProN','Yu Mincho',serif">3</text><text x="464.0" y="135.0" font-size="12.5" fill="#1e3a5f" font-weight="700" text-anchor="start" font-family="'Noto Serif JP','Hiragino Mincho ProN','Yu Mincho',serif">名簿の直接収集</text><text x="434.0" y="162.0" font-size="11" fill="#5c6675" font-weight="400" text-anchor="start" font-family="'Noto Sans JP','Hiragino Kaku Gothic ProN','Yu Gothic',sans-serif">申込書で会員情報を取得</text><g transform="translate(595.0,161.0)"><line x1="2.0" y1="0.0" x2="7.0" y2="0.0" stroke="#bd9628" stroke-width="2.5"/><path d="M5 -6 L14 0 L5 6 Z" fill="#bd9628"/></g><rect x="611.0" y="108.0" width="177.0" height="106.0" rx="12" fill="#fff" stroke="#e7e2d6" stroke-width="1"/><rect x="611.0" y="108.0" width="177.0" height="4.0" rx="2" fill="#bd9628"/><circle cx="635.0" cy="138" r="14" fill="#1e3a5f"/><text x="635.0" y="143.0" font-size="13" fill="#fff" font-weight="700" text-anchor="middle" font-family="'Noto Serif JP','Hiragino Mincho ProN','Yu Mincho',serif">4</text><text x="657.0" y="135.0" font-size="12.5" fill="#1e3a5f" font-weight="700" text-anchor="start" font-family="'Noto Serif JP','Hiragino Mincho ProN','Yu Mincho',serif">学校事務の切離し</text><text x="627.0" y="162.0" font-size="11" fill="#5c6675" font-weight="400" text-anchor="start" font-family="'Noto Sans JP','Hiragino Kaku Gothic ProN','Yu Gothic',sans-serif">教職員の代行を段階的に解消</text><text x="32.0" y="242.0" font-size="11" fill="#5c6675" font-weight="400" text-anchor="start" font-family="'Noto Sans JP','Hiragino Kaku Gothic ProN','Yu Gothic',sans-serif">出典： PTA適正化推進委員会 役員ガイド</text></svg>