<svg xmlns="http://www.w3.org/2000/svg" viewBox="0 0 760 526" width="760" height="526" font-family="'Noto Sans JP','Hiragino Kaku Gothic ProN','Yu Gothic',sans-serif" role="img" aria-label="教育委員会が確認すべき5つの領域"><rect x="1.0" y="1.0" width="758.0" height="523.9" rx="16" fill="#ffffff" stroke="#e7e2d6" stroke-width="1"/><text x="32.0" y="38.0" font-size="12" fill="#7a5d14" font-weight="700" text-anchor="start" font-family="'Noto Sans JP','Hiragino Kaku Gothic ProN','Yu Gothic',sans-serif">教育委員会</text><line x1="32.0" y1="49.0" x2="100.0" y2="49.0" stroke="#bd9628" stroke-width="2"/><text x="32.0" y="72.0" font-size="18.5" fill="#1e3a5f" font-weight="700" text-anchor="start" font-family="'Noto Serif JP','Hiragino Mincho ProN','Yu Mincho',serif">教育委員会が確認すべき5つの領域</text><line x1="32.0" y1="74.0" x2="728.0" y2="74.0" stroke="#bd9628" stroke-width="2"/><line x1="380.0" y1="274.0" x2="380.0" y2="134.0" stroke="#bd9628" stroke-width="2"/><line x1="380.0" y1="274.0" x2="513.1" y2="230.7" stroke="#bd9628" stroke-width="2"/><line x1="380.0" y1="274.0" x2="462.3" y2="387.3" stroke="#bd9628" stroke-width="2"/><line x1="380.0" y1="274.0" x2="297.7" y2="387.3" stroke="#bd9628" stroke-width="2"/><line x1="380.0" y1="274.0" x2="246.9" y2="230.7" stroke="#bd9628" stroke-width="2"/><circle cx="380.0" cy="274" r="58" fill="#1e3a5f"/><text x="380.0" y="270.0" font-size="14" fill="#fff" font-weight="700" text-anchor="middle" font-family="'Noto Serif JP','Hiragino Mincho ProN','Yu Mincho',serif">教委が確認</text><text x="380.0" y="287.5" font-size="14" fill="#fff" font-weight="700" text-anchor="middle" font-family="'Noto Serif JP','Hiragino Mincho ProN','Yu Mincho',serif">すべき5領域</text><rect x="316.0" y="96.0" width="128.0" height="76.0" rx="11" fill="#fff" stroke="#bd9628" stroke-width="1"/><text x="380.0" y="128.0" font-size="12.5" fill="#1e3a5f" font-weight="700" text-anchor="middle" font-family="'Noto Serif JP','Hiragino Mincho ProN','Yu Mincho',serif">入会意思確認</text><g transform="translate(380.0,157.0)"><rect x="-28.0" y="-13.0" width="56.0" height="26" rx="13" fill="#f3e8c4"/><text x="0.0" y="4.5" font-size="10" fill="#7a5d14" font-weight="700" text-anchor="middle" font-family="'Noto Sans JP','Hiragino Kaku Gothic ProN','Yu Gothic',sans-serif">入会届</text></g><rect x="449.1" y="192.7" width="128.0" height="76.0" rx="11" fill="#fff" stroke="#bd9628" stroke-width="1"/><text x="513.1" y="224.7" font-size="12.5" fill="#1e3a5f" font-weight="700" text-anchor="middle" font-family="'Noto Serif JP','Hiragino Mincho ProN','Yu Mincho',serif">会費徴収</text><g transform="translate(513.1479122813215,253.73762078750735)"><rect x="-33.0" y="-13.0" width="66.0" height="26" rx="13" fill="#f3e8c4"/><text x="0.0" y="4.5" font-size="10" fill="#7a5d14" font-weight="700" text-anchor="middle" font-family="'Noto Sans JP','Hiragino Kaku Gothic ProN','Yu Gothic',sans-serif">独自徴収</text></g><rect x="398.3" y="349.3" width="128.0" height="76.0" rx="11" fill="#fff" stroke="#bd9628" stroke-width="1"/><text x="462.3" y="381.3" font-size="12.5" fill="#1e3a5f" font-weight="700" text-anchor="middle" font-family="'Noto Serif JP','Hiragino Mincho ProN','Yu Mincho',serif">個人情報</text><g transform="translate(462.28993532094626,410.26237921249265)"><rect x="-33.0" y="-13.0" width="66.0" height="26" rx="13" fill="#f3e8c4"/><text x="0.0" y="4.5" font-size="10" fill="#7a5d14" font-weight="700" text-anchor="middle" font-family="'Noto Sans JP','Hiragino Kaku Gothic ProN','Yu Gothic',sans-serif">直接収集</text></g><rect x="233.7" y="349.3" width="128.0" height="76.0" rx="11" fill="#fff" stroke="#bd9628" stroke-width="1"/><text x="297.7" y="381.3" font-size="12.5" fill="#1e3a5f" font-weight="700" text-anchor="middle" font-family="'Noto Serif JP','Hiragino Mincho ProN','Yu Mincho',serif">教職員関与</text><g transform="translate(297.71006467905374,410.26237921249265)"><rect x="-38.6" y="-13.0" width="77.2" height="26" rx="13" fill="#f3e8c4"/><text x="0.0" y="4.5" font-size="10" fill="#7a5d14" font-weight="700" text-anchor="middle" font-family="'Noto Sans JP','Hiragino Kaku Gothic ProN','Yu Gothic',sans-serif">地公法35条</text></g><rect x="182.9" y="192.7" width="128.0" height="76.0" rx="11" fill="#fff" stroke="#bd9628" stroke-width="1"/><text x="246.9" y="224.7" font-size="12.5" fill="#1e3a5f" font-weight="700" text-anchor="middle" font-family="'Noto Serif JP','Hiragino Mincho ProN','Yu Mincho',serif">施設・配布・連絡</text><g transform="translate(246.8520877186785,253.73762078750735)"><rect x="-26.4" y="-13.0" width="52.8" height="26" rx="13" fill="#f3e8c4"/><text x="0.0" y="4.5" font-size="10" fill="#7a5d14" font-weight="700" text-anchor="middle" font-family="'Noto Sans JP','Hiragino Kaku Gothic ProN','Yu Gothic',sans-serif">137条</text></g><text x="32.0" y="466.0" font-size="12.5" fill="#5c6675" font-weight="400" text-anchor="start" font-family="'Noto Sans JP','Hiragino Kaku Gothic ProN','Yu Gothic',sans-serif">法令論の前に「学校が関与した事実」を確認する。PTA内部ではなく、学校関与部分を点検する。</text><text x="32.0" y="495.4" font-size="11" fill="#5c6675" font-weight="400" text-anchor="start" font-family="'Noto Sans JP','Hiragino Kaku Gothic ProN','Yu Gothic',sans-serif">出典： PTA適正化推進委員会「教育委員会向け実務指針」</text></svg>